<mxfile host="app.diagrams.net" agent="Mozilla/5.0 (Windows NT 10.0; Win64; x64) AppleWebKit/537.36 (KHTML, like Gecko) Chrome/133.0.0.0 Safari/537.36" version="26.0.14">
  <diagram name="第 1 页" id="ww4SpD9q9hE-swhxdFp6">
    <mxGraphModel dx="1050" dy="-604" grid="1" gridSize="10" guides="1" tooltips="1" connect="1" arrows="1" fold="1" page="1" pageScale="1" pageWidth="827" pageHeight="1169" math="0" shadow="0">
      <root>
        <mxCell id="0" />
        <mxCell id="1" parent="0" />
        <mxCell id="QamxqkGbcU3FXPbwEzF8-87" value="" style="html=1;fillColor=#f5f5f5;fontColor=#333333;strokeColor=#666666;" parent="1" vertex="1">
          <mxGeometry x="70" y="1430" width="1240" height="858" as="geometry" />
        </mxCell>
        <mxCell id="QamxqkGbcU3FXPbwEzF8-137" value="venc_application" style="swimlane;fontStyle=1;align=center;verticalAlign=top;childLayout=stackLayout;horizontal=1;startSize=26;horizontalStack=0;resizeParent=1;resizeParentMax=0;resizeLast=0;collapsible=1;marginBottom=0;fillColor=#ffe6cc;strokeColor=#d79b00;" parent="1" vertex="1">
          <mxGeometry x="550" y="1606" width="340" height="372" as="geometry">
            <mxRectangle x="550" y="1606" width="130" height="30" as="alternateBounds" />
          </mxGeometry>
        </mxCell>
        <mxCell id="QamxqkGbcU3FXPbwEzF8-138" value="+ map_userConf_: std::map&lt;int, UserConf&gt;" style="text;strokeColor=#82b366;fillColor=#d5e8d4;align=left;verticalAlign=top;spacingLeft=4;spacingRight=4;overflow=hidden;rotatable=0;points=[[0,0.5],[1,0.5]];portConstraint=eastwest;" parent="QamxqkGbcU3FXPbwEzF8-137" vertex="1">
          <mxGeometry y="26" width="340" height="26" as="geometry" />
        </mxCell>
        <mxCell id="QamxqkGbcU3FXPbwEzF8-139" value="+ map_userConf_init_: std::map&lt;int, UserConf&gt;" style="text;strokeColor=#82b366;fillColor=#d5e8d4;align=left;verticalAlign=top;spacingLeft=4;spacingRight=4;overflow=hidden;rotatable=0;points=[[0,0.5],[1,0.5]];portConstraint=eastwest;" parent="QamxqkGbcU3FXPbwEzF8-137" vertex="1">
          <mxGeometry y="52" width="340" height="26" as="geometry" />
        </mxCell>
        <mxCell id="QamxqkGbcU3FXPbwEzF8-140" value="+ map_slotId_: std::map&lt;std::string, int&gt;" style="text;strokeColor=#82b366;fillColor=#d5e8d4;align=left;verticalAlign=top;spacingLeft=4;spacingRight=4;overflow=hidden;rotatable=0;points=[[0,0.5],[1,0.5]];portConstraint=eastwest;" parent="QamxqkGbcU3FXPbwEzF8-137" vertex="1">
          <mxGeometry y="78" width="340" height="26" as="geometry" />
        </mxCell>
        <mxCell id="QamxqkGbcU3FXPbwEzF8-141" value="+ po_serviceHandle_: ara::com::FindServiceHandle" style="text;strokeColor=#82b366;fillColor=#d5e8d4;align=left;verticalAlign=top;spacingLeft=4;spacingRight=4;overflow=hidden;rotatable=0;points=[[0,0.5],[1,0.5]];portConstraint=eastwest;" parent="QamxqkGbcU3FXPbwEzF8-137" vertex="1">
          <mxGeometry y="104" width="340" height="26" as="geometry" />
        </mxCell>
        <mxCell id="QamxqkGbcU3FXPbwEzF8-142" value="+ po_proxy_[] : std::unique_ptr&lt;tclVencProxy&gt;" style="text;strokeColor=#82b366;fillColor=#d5e8d4;align=left;verticalAlign=top;spacingLeft=4;spacingRight=4;overflow=hidden;rotatable=0;points=[[0,0.5],[1,0.5]];portConstraint=eastwest;" parent="QamxqkGbcU3FXPbwEzF8-137" vertex="1">
          <mxGeometry y="130" width="340" height="26" as="geometry" />
        </mxCell>
        <mxCell id="QamxqkGbcU3FXPbwEzF8-143" value="+ cl_exec_client_[]::ara::exec::ExecutionClient" style="text;strokeColor=#82b366;fillColor=#d5e8d4;align=left;verticalAlign=top;spacingLeft=4;spacingRight=4;overflow=hidden;rotatable=0;points=[[0,0.5],[1,0.5]];portConstraint=eastwest;" parent="QamxqkGbcU3FXPbwEzF8-137" vertex="1">
          <mxGeometry y="156" width="340" height="26" as="geometry" />
        </mxCell>
        <mxCell id="QamxqkGbcU3FXPbwEzF8-144" value="+ cl_venc_skeleton_[]: std::unique_ptr&lt;tclVencSkeleton&gt;" style="text;strokeColor=#82b366;fillColor=#d5e8d4;align=left;verticalAlign=top;spacingLeft=4;spacingRight=4;overflow=hidden;rotatable=0;points=[[0,0.5],[1,0.5]];portConstraint=eastwest;" parent="QamxqkGbcU3FXPbwEzF8-137" vertex="1">
          <mxGeometry y="182" width="340" height="26" as="geometry" />
        </mxCell>
        <mxCell id="QamxqkGbcU3FXPbwEzF8-145" value="+ cl_provider_fsm_: std::unique_ptr&lt;tclProviderFsm&gt; " style="text;strokeColor=#82b366;fillColor=#d5e8d4;align=left;verticalAlign=top;spacingLeft=4;spacingRight=4;overflow=hidden;rotatable=0;points=[[0,0.5],[1,0.5]];portConstraint=eastwest;" parent="QamxqkGbcU3FXPbwEzF8-137" vertex="1">
          <mxGeometry y="208" width="340" height="26" as="geometry" />
        </mxCell>
        <mxCell id="QamxqkGbcU3FXPbwEzF8-146" value="+ deviceId_: int32_t" style="text;strokeColor=#82b366;fillColor=#d5e8d4;align=left;verticalAlign=top;spacingLeft=4;spacingRight=4;overflow=hidden;rotatable=0;points=[[0,0.5],[1,0.5]];portConstraint=eastwest;" parent="QamxqkGbcU3FXPbwEzF8-137" vertex="1">
          <mxGeometry y="234" width="340" height="26" as="geometry" />
        </mxCell>
        <mxCell id="QamxqkGbcU3FXPbwEzF8-147" value="+ context_: aclrtContext" style="text;strokeColor=#82b366;fillColor=#d5e8d4;align=left;verticalAlign=top;spacingLeft=4;spacingRight=4;overflow=hidden;rotatable=0;points=[[0,0.5],[1,0.5]];portConstraint=eastwest;" parent="QamxqkGbcU3FXPbwEzF8-137" vertex="1">
          <mxGeometry y="260" width="340" height="26" as="geometry" />
        </mxCell>
        <mxCell id="QamxqkGbcU3FXPbwEzF8-148" value="......" style="text;strokeColor=#82b366;fillColor=#d5e8d4;align=left;verticalAlign=top;spacingLeft=4;spacingRight=4;overflow=hidden;rotatable=0;points=[[0,0.5],[1,0.5]];portConstraint=eastwest;" parent="QamxqkGbcU3FXPbwEzF8-137" vertex="1">
          <mxGeometry y="286" width="340" height="26" as="geometry" />
        </mxCell>
        <mxCell id="QamxqkGbcU3FXPbwEzF8-149" value="" style="line;strokeWidth=1;fillColor=none;align=left;verticalAlign=middle;spacingTop=-1;spacingLeft=3;spacingRight=3;rotatable=0;labelPosition=right;points=[];portConstraint=eastwest;" parent="QamxqkGbcU3FXPbwEzF8-137" vertex="1">
          <mxGeometry y="312" width="340" height="8" as="geometry" />
        </mxCell>
        <mxCell id="QamxqkGbcU3FXPbwEzF8-150" value="+ vParameterParser(): void" style="text;strokeColor=#6c8ebf;fillColor=#dae8fc;align=left;verticalAlign=top;spacingLeft=4;spacingRight=4;overflow=hidden;rotatable=0;points=[[0,0.5],[1,0.5]];portConstraint=eastwest;" parent="QamxqkGbcU3FXPbwEzF8-137" vertex="1">
          <mxGeometry y="320" width="340" height="26" as="geometry" />
        </mxCell>
        <mxCell id="QamxqkGbcU3FXPbwEzF8-151" value="+ vInit(): void" style="text;strokeColor=#6c8ebf;fillColor=#dae8fc;align=left;verticalAlign=top;spacingLeft=4;spacingRight=4;overflow=hidden;rotatable=0;points=[[0,0.5],[1,0.5]];portConstraint=eastwest;" parent="QamxqkGbcU3FXPbwEzF8-137" vertex="1">
          <mxGeometry y="346" width="340" height="26" as="geometry" />
        </mxCell>
        <mxCell id="QamxqkGbcU3FXPbwEzF8-152" value="main method" style="rounded=0;whiteSpace=wrap;html=1;fillColor=#fff2cc;strokeColor=#d6b656;" parent="1" vertex="1">
          <mxGeometry x="160" y="1824" width="300" height="70" as="geometry" />
        </mxCell>
        <mxCell id="QamxqkGbcU3FXPbwEzF8-153" value="" style="endArrow=diamondThin;endFill=0;endSize=24;html=1;rounded=0;entryX=1;entryY=0.5;entryDx=0;entryDy=0;" parent="1" target="QamxqkGbcU3FXPbwEzF8-152" edge="1">
          <mxGeometry width="160" relative="1" as="geometry">
            <mxPoint x="550" y="1860" as="sourcePoint" />
            <mxPoint x="670" y="1581" as="targetPoint" />
          </mxGeometry>
        </mxCell>
        <mxCell id="QamxqkGbcU3FXPbwEzF8-154" value="+ vInit(): void" style="text;strokeColor=#6c8ebf;fillColor=#dae8fc;align=left;verticalAlign=top;spacingLeft=4;spacingRight=4;overflow=hidden;rotatable=0;points=[[0,0.5],[1,0.5]];portConstraint=eastwest;" parent="1" vertex="1">
          <mxGeometry x="550" y="1978" width="340" height="26" as="geometry" />
        </mxCell>
        <mxCell id="QamxqkGbcU3FXPbwEzF8-155" value="+ vRegisterApService(): void" style="text;strokeColor=#6c8ebf;fillColor=#dae8fc;align=left;verticalAlign=top;spacingLeft=4;spacingRight=4;overflow=hidden;rotatable=0;points=[[0,0.5],[1,0.5]];portConstraint=eastwest;" parent="1" vertex="1">
          <mxGeometry x="550" y="2004" width="340" height="26" as="geometry" />
        </mxCell>
        <mxCell id="QamxqkGbcU3FXPbwEzF8-156" value="+ vGetCamServiceAvailabilityCallback(...): void" style="text;strokeColor=#6c8ebf;fillColor=#dae8fc;align=left;verticalAlign=top;spacingLeft=4;spacingRight=4;overflow=hidden;rotatable=0;points=[[0,0.5],[1,0.5]];portConstraint=eastwest;" parent="1" vertex="1">
          <mxGeometry x="550" y="2030" width="340" height="26" as="geometry" />
        </mxCell>
        <mxCell id="QamxqkGbcU3FXPbwEzF8-157" value="+ vGetCamEventCallback(int i_cam_id): void" style="text;strokeColor=#6c8ebf;fillColor=#dae8fc;align=left;verticalAlign=top;spacingLeft=4;spacingRight=4;overflow=hidden;rotatable=0;points=[[0,0.5],[1,0.5]];portConstraint=eastwest;" parent="1" vertex="1">
          <mxGeometry x="550" y="2056" width="340" height="22" as="geometry" />
        </mxCell>
        <mxCell id="dkvpZq7iE4lLp07j0uEw-1" value="venc_skeleton" style="swimlane;fontStyle=1;align=center;verticalAlign=top;childLayout=stackLayout;horizontal=1;startSize=26;horizontalStack=0;resizeParent=1;resizeParentMax=0;resizeLast=0;collapsible=1;marginBottom=0;fillColor=#ffe6cc;strokeColor=#d79b00;" vertex="1" parent="1">
          <mxGeometry x="960" y="1789" width="340" height="138" as="geometry">
            <mxRectangle x="550" y="1606" width="130" height="30" as="alternateBounds" />
          </mxGeometry>
        </mxCell>
        <mxCell id="dkvpZq7iE4lLp07j0uEw-2" value="+ skeleton_: std::shared_ptr&lt;Skeleton&gt;" style="text;strokeColor=#82b366;fillColor=#d5e8d4;align=left;verticalAlign=top;spacingLeft=4;spacingRight=4;overflow=hidden;rotatable=0;points=[[0,0.5],[1,0.5]];portConstraint=eastwest;" vertex="1" parent="dkvpZq7iE4lLp07j0uEw-1">
          <mxGeometry y="26" width="340" height="26" as="geometry" />
        </mxCell>
        <mxCell id="dkvpZq7iE4lLp07j0uEw-3" value="+ mbufManage_: std::unique_ptr&lt;Adsfi::MbufManage&gt;" style="text;strokeColor=#82b366;fillColor=#d5e8d4;align=left;verticalAlign=top;spacingLeft=4;spacingRight=4;overflow=hidden;rotatable=0;points=[[0,0.5],[1,0.5]];portConstraint=eastwest;" vertex="1" parent="dkvpZq7iE4lLp07j0uEw-1">
          <mxGeometry y="52" width="340" height="26" as="geometry" />
        </mxCell>
        <mxCell id="dkvpZq7iE4lLp07j0uEw-13" value="" style="line;strokeWidth=1;fillColor=none;align=left;verticalAlign=middle;spacingTop=-1;spacingLeft=3;spacingRight=3;rotatable=0;labelPosition=right;points=[];portConstraint=eastwest;" vertex="1" parent="dkvpZq7iE4lLp07j0uEw-1">
          <mxGeometry y="78" width="340" height="8" as="geometry" />
        </mxCell>
        <mxCell id="dkvpZq7iE4lLp07j0uEw-14" value="+ vInit(int i_instanceId): bool" style="text;strokeColor=#6c8ebf;fillColor=#dae8fc;align=left;verticalAlign=top;spacingLeft=4;spacingRight=4;overflow=hidden;rotatable=0;points=[[0,0.5],[1,0.5]];portConstraint=eastwest;" vertex="1" parent="dkvpZq7iE4lLp07j0uEw-1">
          <mxGeometry y="86" width="340" height="26" as="geometry" />
        </mxCell>
        <mxCell id="dkvpZq7iE4lLp07j0uEw-15" value="+ vsend(...): void" style="text;strokeColor=#6c8ebf;fillColor=#dae8fc;align=left;verticalAlign=top;spacingLeft=4;spacingRight=4;overflow=hidden;rotatable=0;points=[[0,0.5],[1,0.5]];portConstraint=eastwest;" vertex="1" parent="dkvpZq7iE4lLp07j0uEw-1">
          <mxGeometry y="112" width="340" height="26" as="geometry" />
        </mxCell>
        <mxCell id="dkvpZq7iE4lLp07j0uEw-16" value="" style="endArrow=diamondThin;endFill=0;endSize=24;html=1;rounded=0;entryX=1;entryY=0.5;entryDx=0;entryDy=0;exitX=0;exitY=0.5;exitDx=0;exitDy=0;" edge="1" parent="1" source="dkvpZq7iE4lLp07j0uEw-3" target="QamxqkGbcU3FXPbwEzF8-146">
          <mxGeometry width="160" relative="1" as="geometry">
            <mxPoint x="960" y="1853" as="sourcePoint" />
            <mxPoint x="900" y="1858.5" as="targetPoint" />
          </mxGeometry>
        </mxCell>
      </root>
    </mxGraphModel>
  </diagram>
</mxfile>
